<?xml version="1.0" encoding="iso-8859-1"?>
<!-- Generator: Adobe Illustrator 19.0.0, SVG Export Plug-In . SVG Version: 6.00 Build 0)  -->
<svg version="1.1" id="Capa_1" xmlns="http://www.w3.org/2000/svg" xmlns:xlink="http://www.w3.org/1999/xlink" x="0px" y="0px"
	 viewBox="0 0 480 480" style="enable-background:new 0 0 480 480;" xml:space="preserve">
<g>
	<g>
		<path d="M280,220c0-28.416-72.912-36-116-36s-116,7.584-116,36c0.067,0.746,0.187,1.487,0.36,2.216
			c-0.19,0.578-0.31,1.177-0.36,1.784v216c0.047,0.681,0.181,1.353,0.4,2c-0.219,0.647-0.353,1.319-0.4,2c0,28.416,72.912,36,116,36
			c36.8,0,95.2-5.6,111.504-24.896c2.734-1.313,4.48-4.071,4.496-7.104V224c-0.05-0.609-0.171-1.211-0.36-1.792
			C279.813,221.482,279.933,220.744,280,220z M264,443.912C262.208,450.744,225.352,464,164,464c-61.392,0-98.264-13.28-100-20
			c-0.047-0.681-0.181-1.353-0.4-2c0.219-0.647,0.353-1.319,0.4-2v-8.264C87.888,444.128,133.408,448,164,448
			s76.112-3.872,100-16.264V443.912z M264,411.912C262.208,418.744,225.352,432,164,432s-98.264-13.28-100-20v-12.264
			C87.888,412.128,133.408,416,164,416s76.112-3.872,100-16.264V411.912z M264,379.912C262.208,386.744,225.352,400,164,400
			s-98.264-13.28-100-20v-12.264C87.888,380.128,133.408,384,164,384s76.112-3.872,100-16.264V379.912z M264,347.912
			C262.208,354.744,225.352,368,164,368s-98.264-13.28-100-20v-12.264C87.888,348.128,133.408,352,164,352s76.112-3.872,100-16.264
			V347.912z M264,315.912C262.208,322.744,225.352,336,164,336s-98.264-13.28-100-20v-12.264C87.888,316.128,133.408,320,164,320
			s76.112-3.872,100-16.264V315.912z M264,283.912C262.208,290.744,225.352,304,164,304s-98.264-13.28-100-20v-12.264
			C87.888,284.128,133.408,288,164,288s76.112-3.872,100-16.264V283.912z M264,251.912C262.208,258.744,225.352,272,164,272
			s-98.264-13.28-100-20v-12.264C87.888,252.128,133.408,256,164,256s76.112-3.872,100-16.264V251.912z M164,240
			c-61.392,0-98.264-13.28-100-19.896C65.736,213.28,102.608,200,164,200c61.088,0,97.896,13.152,100,20
			C261.912,226.848,225.104,240,164,240z"/>
	</g>
</g>
<g>
	<g>
		<path d="M432,36c0-28.416-72.912-36-116-36S200,7.584,200,36c0.067,0.746,0.187,1.487,0.36,2.216
			c-0.19,0.578-0.31,1.177-0.36,1.784v120c0,4.418,3.582,8,8,8s8-3.582,8-8v-8.264C239.888,164.128,285.408,168,316,168
			c30.592,0,76.112-3.872,100-16.264v12.176C414.208,170.744,377.352,184,316,184c-3.973,0-7.899-0.056-11.776-0.168
			c-4.418-0.124-8.1,3.358-8.224,7.776s3.358,8.1,7.776,8.224C307.787,199.944,311.861,200,316,200
			c30.592,0,76.112-3.872,100-16.264v12.176C414.208,202.744,377.352,216,316,216c-3.973,0-7.899-0.056-11.776-0.168
			c-4.418-0.124-8.1,3.358-8.224,7.776s3.358,8.1,7.776,8.224C307.787,231.944,311.861,232,316,232
			c30.592,0,76.112-3.872,100-16.264v12.176C414.208,234.744,377.352,248,316,248c-3.973,0-7.899-0.056-11.776-0.168
			c-4.418-0.124-8.1,3.358-8.224,7.776s3.358,8.1,7.776,8.224C307.787,263.944,311.861,264,316,264
			c30.592,0,76.112-3.872,100-16.264v12.176C414.208,266.744,377.352,280,316,280c-3.973,0-7.899-0.056-11.776-0.168
			c-4.418-0.124-8.1,3.358-8.224,7.776s3.358,8.1,7.776,8.224C307.787,295.944,311.861,296,316,296
			c30.592,0,76.112-3.872,100-16.264v12.176C414.208,298.744,377.352,312,316,312c-3.973,0-7.899-0.056-11.776-0.168
			c-4.418-0.124-8.1,3.358-8.224,7.776s3.358,8.1,7.776,8.224C307.787,327.944,311.861,328,316,328
			c30.592,0,76.112-3.872,100-16.264v12.176C414.208,330.744,377.352,344,316,344c-3.973,0-7.899-0.056-11.776-0.168
			c-4.418-0.124-8.1,3.358-8.224,7.776s3.358,8.1,7.776,8.224C307.787,359.944,311.861,360,316,360
			c30.592,0,76.112-3.872,100-16.264v12.176C414.208,362.744,377.352,376,316,376c-3.973,0-7.899-0.056-11.776-0.168
			c-4.418-0.124-8.1,3.358-8.224,7.776s3.358,8.1,7.776,8.224C307.787,391.944,311.861,392,316,392
			c30.592,0,76.112-3.872,100-16.264v12.176C414.208,394.744,377.352,408,316,408c-3.973,0-7.899-0.056-11.776-0.168
			c-4.418-0.124-8.1,3.358-8.224,7.776s3.358,8.1,7.776,8.224C307.787,423.944,311.861,424,316,424c36.8,0,95.2-5.6,111.504-24.896
			c2.734-1.313,4.48-4.071,4.496-7.104V40c-0.05-0.609-0.171-1.211-0.36-1.792C431.813,37.482,431.933,36.744,432,36z M416,131.912
			C414.208,138.744,377.352,152,316,152c-61.392,0-98.264-13.28-100-20v-12.264C239.888,132.128,285.408,136,316,136
			c30.592,0,76.112-3.872,100-16.264V131.912z M416,99.912C414.208,106.744,377.352,120,316,120s-98.264-13.28-100-20V87.736
			C239.888,100.128,285.408,104,316,104c30.592,0,76.112-3.872,100-16.264V99.912z M416,67.912C414.208,74.744,377.352,88,316,88
			s-98.264-13.28-100-20V55.736C239.888,68.128,285.408,72,316,72c30.592,0,76.112-3.872,100-16.264V67.912z M316,56
			c-61.392,0-98.264-13.28-100-19.896C217.736,29.28,254.608,16,316,16c61.088,0,97.896,13.152,100,20
			C413.896,42.848,377.088,56,316,56z"/>
	</g>
</g>
<g>
</g>
<g>
</g>
<g>
</g>
<g>
</g>
<g>
</g>
<g>
</g>
<g>
</g>
<g>
</g>
<g>
</g>
<g>
</g>
<g>
</g>
<g>
</g>
<g>
</g>
<g>
</g>
<g>
</g>
</svg>
