<?xml version="1.0" encoding="UTF-8"?>
<svg width="114px" height="44px" viewBox="0 0 114 44" version="1.1" xmlns="http://www.w3.org/2000/svg" xmlns:xlink="http://www.w3.org/1999/xlink">
    <!-- Generator: Sketch 49.3 (51167) - http://www.bohemiancoding.com/sketch -->
    <title>Group 6 Copy</title>
    <desc>Created with Sketch.</desc>
    <defs>
        <filter x="-3.8%" y="-6.6%" width="107.6%" height="113.2%" filterUnits="objectBoundingBox" id="filter-1">
            <feOffset dx="0" dy="0" in="SourceAlpha" result="shadowOffsetOuter1"></feOffset>
            <feGaussianBlur stdDeviation="2" in="shadowOffsetOuter1" result="shadowBlurOuter1"></feGaussianBlur>
            <feColorMatrix values="0 0 0 0 0   0 0 0 0 0   0 0 0 0 0  0 0 0 0.5 0" type="matrix" in="shadowBlurOuter1" result="shadowMatrixOuter1"></feColorMatrix>
            <feMerge>
                <feMergeNode in="shadowMatrixOuter1"></feMergeNode>
                <feMergeNode in="SourceGraphic"></feMergeNode>
            </feMerge>
        </filter>
    </defs>
    <g id="Page-1" stroke="none" stroke-width="1" fill="none" fill-rule="evenodd">
        <g id="Tut_2-2-schieben" transform="translate(-144.000000, -313.000000)">
            <g id="TP/Kachel/hellblau" transform="translate(10.000000, 342.000000)">
                <rect id="Rectangle-4" fill="#009EE2" fill-rule="evenodd" x="0" y="0" width="176" height="110"></rect>
                <text id="Leben" opacity="0.5" font-family="ClerMarkHeadline-Bold, Cler Mark Headline" font-size="11" font-weight="bold" line-spacing="32" letter-spacing="0.5" fill="#FFFFFF">
                    <tspan x="64.47525" y="90">SPAREN</tspan>
                </text>
                <text id="12’134.51" font-family="ClerMarkHeadline-Regular, Cler Mark Headline" font-size="19" font-weight="normal" line-spacing="24" letter-spacing="-0.237499997" fill="#FFFFFF">
                    <tspan x="50.2755" y="81">4’000.00</tspan>
                </text>
                <g id="illu/sparen/default" transform="translate(64.000000, 10.000000)" fill="#FFFFFF" fill-rule="evenodd">
                    <path d="M40.3463329,21.8619353 L41.6670348,21.8629693 C42.7469375,21.8629693 43.5307959,23.1941955 43.5307959,25.0284629 C43.5307959,26.8453012 42.760721,28.131452 41.6963996,28.1560932 L40.1671829,28.1661759 L40.1647935,28.2494051 C39.1267942,30.7883979 36.9795269,33.0804024 34.1221652,34.5743118 L34.1221652,37.3490666 C34.1221652,37.7978005 33.7652112,38 33.2663267,38 L29.9475136,38 C29.3821213,38 28.8951112,37.8051153 28.8951112,37.3490666 L28.8951112,36.2556758 C27.1964911,36.5850497 25.0448301,36.621901 23.3351238,36.3530826 L23.3351238,37.3490666 C23.3351238,37.798264 22.9686261,38 22.4655019,38 L19.1466888,38 C18.5859958,38 18.1080698,37.8046479 18.1080698,37.3490666 L18.1080698,34.8813993 C13.9892601,32.9129739 11.3336627,29.439618 10.9633927,25.5555342 C10.9405598,25.5343447 10.9209807,25.5082429 10.9044669,25.4782983 C10.7776271,25.5162735 10.6525394,25.5407089 10.4781025,25.5447263 C9.91597774,25.5555443 9.36883503,25.4197172 8.86244336,25.1498659 C8.49328683,25.3734398 8.05880878,25.5489333 7.57638831,25.5904026 C7.50327614,25.5958117 7.43016397,25.5988167 7.35765109,25.5988167 C6.5809841,25.5988167 5.84566745,25.2442237 5.16848096,24.5422498 C4.93835741,24.3036508 4.94494949,23.9232146 5.1822644,23.6924287 C5.42137715,23.4628447 5.79952288,23.4682538 6.02964643,23.7068528 C6.5150633,24.209894 6.99089168,24.4310639 7.47570926,24.3919985 C7.59017176,24.3823825 7.70163785,24.3589433 7.80950826,24.324085 C7.73220113,24.2393433 7.65729112,24.1503945 7.58477823,24.0578397 C7.0142636,23.4364005 6.64390851,22.3882477 7.37203381,21.3845692 C7.68006377,20.9602597 8.16428207,20.6940144 8.70063774,20.6549491 C9.22021357,20.6146817 9.71042467,20.7949833 10.0508158,21.1429652 C10.7717497,21.8803984 10.8316777,23.0986357 10.1868523,23.9166035 C10.1808595,23.9262196 10.0801805,24.0722639 9.8991979,24.2748026 C10.13052,24.3373071 10.3246868,24.3457212 10.4469399,24.3433171 C10.632708,24.3389335 10.806114,24.3035557 10.947667,24.2450875 C10.9795422,24.1213386 11.0159032,24.0148322 11.0543875,23.9393351 C11.3588855,19.7593549 14.2329392,16.1324288 18.8142957,14.1949634 L19.0234028,14.1065316 L19.5953589,15.6629876 L19.4053561,15.7433241 C15.1421648,17.5458752 12.6056133,20.8819178 12.6056133,24.6414156 C12.6056133,28.365496 15.1716059,31.7931452 19.3583188,33.6044575 C19.6518694,33.7312001 19.7394434,33.9705212 19.7394434,34.3548594 L19.7394434,36.3651765 L21.7037503,36.3651765 L21.7037503,35.3813761 C21.7037503,35.1149096 21.7759866,34.9018146 21.9592392,34.7498589 C22.151206,34.5915096 22.3570401,34.5320554 22.5937251,34.5788827 C24.933708,35.0409893 27.3990093,34.9966729 29.7021557,34.451139 C29.9421964,34.3955855 30.1360411,34.4476144 30.336079,34.6066072 C30.5098061,34.7443851 30.5372807,34.8794965 30.5282319,35.1651001 C30.5268877,35.2080299 30.5268877,35.2080299 30.5264848,35.2473519 L30.5264848,36.3651765 L32.4907917,36.3651765 L32.4907917,34.071185 C32.4907917,33.7615224 32.644694,33.5361566 32.9301729,33.3975706 C35.8567818,31.9743083 37.9543283,29.7451418 38.7578142,27.1963659 C38.8627844,26.862066 39.128336,26.7490955 39.5353956,26.7490955 L39.8572465,26.7490955 C39.6801579,26.2439715 39.5862678,25.6601421 39.5862678,25.0284629 C39.5862678,24.4045183 39.674483,23.8078886 39.8345685,23.2801841 L39.6780243,23.2801841 C39.304585,23.2801841 38.9791096,23.0267318 38.8869155,22.664257 C38.274809,20.2428216 36.5401483,18.0650923 33.9978596,16.5353284 C33.714772,16.3648237 33.5626884,16.0408601 33.6108473,15.7126092 L33.7273036,14.9368928 C33.4178444,15.0999582 33.1455473,15.2786473 32.9098489,15.4648522 C32.6776651,15.6486828 32.366951,15.6922628 32.0935978,15.5793335 C31.9595616,15.5239527 31.8094474,15.4748489 31.5583105,15.4007518 C31.4635462,15.3729089 31.4635462,15.3729089 31.3687059,15.3449885 C31.2418316,15.3074417 31.1504053,15.2791177 31.0647926,15.25018 L30.8795924,15.187581 L31.2508923,13.5615171 L31.4777842,13.638122 C31.5639332,13.6672083 31.6730156,13.70163 31.9203424,13.7790208 C32.1077888,13.8385528 32.2051758,13.8706354 32.2854129,13.8988939 C32.9132105,13.4740762 33.6572526,13.1177243 34.5217904,12.8717741 C34.7883015,12.7957591 35.0749787,12.8613652 35.2836862,13.0452288 C35.490982,13.2286634 35.591491,13.5049666 35.5514351,13.7804076 L35.303753,15.4260242 C37.8045129,17.058348 39.5712676,19.2912923 40.3463329,21.8619353 Z M35.9854075,21.3942016 C35.9854075,21.8835335 35.5887772,22.2795017 35.1001074,22.2795017 C34.6107755,22.2795017 34.2148073,21.8835335 34.2148073,21.3942016 C34.2148073,20.9048697 34.6107755,20.5089015 35.1001074,20.5089015 C35.5887772,20.5089015 35.9854075,20.9048697 35.9854075,21.3942016 Z M31.1841335,16.719299 C31.4923214,16.8417341 31.6397941,17.1854943 31.5139909,17.4862844 C31.418886,17.714673 31.1931624,17.8530012 30.9566041,17.8530012 C30.880761,17.8530012 30.803714,17.8382854 30.7290748,17.8094425 C25.5681312,15.7480589 20.0382049,17.7917836 19.9840313,17.8129743 C19.6758434,17.9295231 19.3261223,17.7794224 19.2057364,17.4762777 C19.0853505,17.1737217 19.2388425,16.8329047 19.5488362,16.7151786 C19.6258832,16.6857471 20.2633266,16.4502949 21.2733643,16.2130769 C20.8086747,15.4719912 20.5552624,14.6161226 20.5552624,13.7378861 C20.5552624,11.1255444 22.7282279,9 25.399591,9 C28.0709541,9 30.2439196,11.1255444 30.2439196,13.7378861 C30.2439196,14.6102363 29.9983324,15.4578641 29.5426717,16.1930634 C30.0880199,16.3343347 30.6363776,16.5003285 31.1841335,16.719299 Z M22.5620953,15.9558454 C24.1126657,15.7003798 26.1243141,15.5661721 28.25996,15.918173 C28.7571537,15.2954021 29.0400606,14.5337144 29.0400606,13.7378861 C29.0400606,11.7748037 27.4070259,10.1772608 25.399591,10.1772608 C23.392758,10.1772608 21.7591214,11.7748037 21.7591214,13.7378861 C21.7591214,14.5460756 22.0480475,15.3271881 22.5620953,15.9558454 Z M8.83188008,23.6557673 C9.07398923,23.4153653 9.21901501,23.2098216 9.22261069,23.2050136 C9.51985361,22.8251784 9.49648168,22.2926879 9.19504381,21.9849733 C9.11234315,21.8996306 8.98050154,21.8515502 8.83667432,21.8515502 C8.81989448,21.8515502 8.80431319,21.8521512 8.78813263,21.8533532 C8.60415365,21.8665753 8.44174875,21.953721 8.34166897,22.0913512 C8.00127789,22.5607361 8.23319928,22.9904547 8.48789331,23.2693211 C8.49927963,23.2819422 8.52025444,23.3071844 8.53104148,23.3198055 C8.62992269,23.4466176 8.73060174,23.5584045 8.83188008,23.6557673 Z M41.0611627,25.0284629 C41.0611627,26.2635283 41.5274026,26.9060027 41.6688327,26.9312449 C41.8066671,26.9060027 42.272907,26.2635283 42.272907,25.0284629 C42.272907,23.7945995 41.8066671,23.1503221 41.665237,23.1250799 C41.5274026,23.1503221 41.0611627,23.7945995 41.0611627,25.0284629 Z" id="Combined-Shape-Copy"></path>
                </g>
            </g>
            <g id="TP/Kachel/dunkelblau" transform="translate(188.000000, 230.000000)" fill="#FFFFFF">
                <text id="Fixkosten" opacity="0.5" font-family="LucidaGrande, Lucida Grande" font-size="11" font-weight="normal" line-spacing="32" letter-spacing="0.5">
                    <tspan x="56.9265137" y="90">FIXKOSTEN</tspan>
                </text>
                <text id="5’234.51" font-family="ClerMarkHeadline-Regular, Cler Mark Headline" font-size="19" font-weight="normal" line-spacing="24" letter-spacing="-0.237499997">
                    <tspan x="50.2755" y="81">5’234.51</tspan>
                </text>
                <g id="illu/ausgaben/default" transform="translate(64.000000, 10.000000)" fill-rule="evenodd">
                    <path d="M14.4089896,27.75 C10.3099665,27.75 7.28638798,26.5629636 6.11096718,24.4921745 C5.89045899,24.1042952 6.00912229,23.6012222 6.37352143,23.3690346 C6.73792057,23.1341472 7.21350816,23.2601404 7.43401635,23.6480197 C8.31044299,25.191437 10.9182327,26.1129877 14.4089896,26.1129877 C18.9452916,26.1129877 20.7542063,24.5236728 21.4288119,23.5769235 C21.68576,23.2142429 22.1697568,23.1422468 22.510797,23.4167321 C22.8518372,23.6885175 22.9191109,24.20149 22.6621628,24.5632707 C21.6268955,26.0166928 19.3545399,27.75 14.4089896,27.75 Z M6.11096718,27.8669499 C5.89045899,27.4790439 6.00912229,26.9759362 6.37352143,26.7437326 C6.73792057,26.507929 7.21350816,26.6348309 7.43401635,27.0227369 C8.31044299,28.5662606 10.9182327,29.4878748 14.4089896,29.4878748 C18.9452916,29.4878748 20.7542063,27.8984504 21.4288119,26.9516358 C21.68576,26.5898303 22.1697568,26.5178291 22.510797,26.7914334 C22.8518372,27.0632375 22.9191109,27.5762454 22.6621628,27.938051 C21.6268955,29.3915733 19.3545399,31.125 14.4089896,31.125 C10.3099665,31.125 7.28638798,29.9378817 6.11096718,27.8669499 Z M6.11096718,31.241981 C5.89045899,30.8540787 6.00912229,30.3509758 6.37352143,30.1187744 C6.73792057,29.883873 7.21350816,30.0098738 7.43401635,30.397776 C8.31044299,31.9412851 10.9182327,32.8628904 14.4089896,32.8628904 C18.9452916,32.8628904 20.7542063,31.2734812 21.4288119,30.3266756 C21.68576,29.9648735 22.1697568,29.8919731 22.510797,30.1664747 C22.8518372,30.4382763 22.9191109,30.9512793 22.6621628,31.3130814 C21.6268955,32.7665899 19.3545399,34.5 14.4089896,34.5 C10.3099665,34.5 7.28638798,33.3128931 6.11096718,31.241981 Z M6,18.1875 C6,14.7177404 9.6934596,12 14.4090909,12 C19.1247222,12 22.8181818,14.7177404 22.8181818,18.1875 C22.8181818,21.6572596 19.1247222,24.375 14.4090909,24.375 C9.6934596,24.375 6,21.6572596 6,18.1875 Z M26.2927854,32.3671745 C26.0722772,31.9792952 26.1909405,31.4762222 26.5553396,31.2440346 C26.9197387,31.0091472 27.3953263,31.1351404 27.6158345,31.5230197 C28.4922612,33.066437 31.1000509,33.9879877 34.5908077,33.9879877 C39.1271098,33.9879877 40.9360245,32.3986728 41.6106301,31.4519235 C41.8675782,31.0892429 42.351575,31.0172468 42.6926152,31.2917321 C43.0336554,31.5635175 43.1009291,32.07649 42.843981,32.4382707 C41.8087137,33.8916928 39.5363581,35.625 34.5908077,35.625 C30.4917846,35.625 27.4682062,34.4379636 26.2927854,32.3671745 Z M26.2927854,35.7419499 C26.0722772,35.3540439 26.1909405,34.8509362 26.5553396,34.6187326 C26.9197387,34.382929 27.3953263,34.5098309 27.6158345,34.8977369 C28.4922612,36.4412606 31.1000509,37.3628748 34.5908077,37.3628748 C39.1271098,37.3628748 40.9360245,35.7734504 41.6106301,34.8266358 C41.8675782,34.4648303 42.351575,34.3928291 42.6926152,34.6664334 C43.0336554,34.9382375 43.1009291,35.4512454 42.843981,35.813051 C41.8087137,37.2665733 39.5363581,39 34.5908077,39 C30.4917846,39 27.4682062,37.8128817 26.2927854,35.7419499 Z M26.1818182,26.0625 C26.1818182,22.5927404 29.8752778,19.875 34.5909091,19.875 C39.3065404,19.875 43,22.5927404 43,26.0625 C43,29.5322596 39.3065404,32.25 34.5909091,32.25 C29.8752778,32.25 26.1818182,29.5322596 26.1818182,26.0625 Z M27.8636364,26.0625 C27.8636364,28.3842404 30.9441667,30.3461538 34.5909091,30.3461538 C38.2376515,30.3461538 41.3181818,28.3842404 41.3181818,26.0625 C41.3181818,23.7407596 38.2376515,21.7788462 34.5909091,21.7788462 C30.9441667,21.7788462 27.8636364,23.7407596 27.8636364,26.0625 Z M7.68181818,18.1875 C7.68181818,20.5092404 10.7623485,22.4711538 14.4090909,22.4711538 C18.0558333,22.4711538 21.1363636,20.5092404 21.1363636,18.1875 C21.1363636,15.8657596 18.0558333,13.9038462 14.4090909,13.9038462 C10.7623485,13.9038462 7.68181818,15.8657596 7.68181818,18.1875 Z" id="Combined-Shape-Copy"></path>
                </g>
            </g>
            <g id="TP/Kachel/hellblau" transform="translate(10.000000, 230.000000)">
                <rect id="Rectangle-4" fill="#009EE2" fill-rule="evenodd" x="0" y="0" width="176" height="110"></rect>
                <text id="Leben" opacity="0.5" font-family="ClerMarkHeadline-Bold, Cler Mark Headline" font-size="11" font-weight="bold" line-spacing="32" letter-spacing="0.5" fill="#FFFFFF">
                    <tspan x="68.7375" y="90">LEBEN</tspan>
                </text>
                <text id="12’134.51" font-family="ClerMarkHeadline-Regular, Cler Mark Headline" font-size="19" font-weight="normal" line-spacing="24" letter-spacing="-0.237499997" fill="#FFFFFF">
                    <tspan x="50.2755" y="81">2’900.00</tspan>
                </text>
                <g id="illu/leben/hi" transform="translate(64.000000, 10.000000)">
                    <circle id="Oval-Copy-2" fill="#FFFFFF" fill-rule="evenodd" cx="24" cy="24" r="24"></circle>
                    <path d="M37.7179487,20.1538462 L37.7179487,16.5730147 C37.7179487,15.9995077 37.2583509,15.5384615 36.6907432,15.5384615 L11.5656671,15.5384615 C10.9953948,15.5384615 10.5384615,15.9983665 10.5384615,16.5730147 L10.5384615,20.1538462 L37.7179487,20.1538462 Z M37.7179487,26.3076923 L10.5384615,26.3076923 L10.5384615,31.4269853 C10.5384615,32.0004923 10.9980594,32.4615385 11.5656671,32.4615385 L36.6907432,32.4615385 C37.2610155,32.4615385 37.7179487,32.0016335 37.7179487,31.4269853 L37.7179487,26.3076923 Z M9,16.5730147 C9,15.1509223 10.1434854,14 11.5656671,14 L36.6907432,14 C38.1091052,14 39.2564103,15.1509206 39.2564103,16.5730147 L39.2564103,31.4269853 C39.2564103,32.8490777 38.1129249,34 36.6907432,34 L11.5656671,34 C10.147305,34 9,32.8490794 9,31.4269853 L9,16.5730147 Z M10.5384615,21.6923077 L10.5384615,24.7692308 L37.7179487,24.7692308 L37.7179487,21.6923077 L10.5384615,21.6923077 Z" id="Combined-Shape-Copy" fill="#009EE2" fill-rule="nonzero"></path>
                </g>
            </g>
            <g id="TP/Kachel/hellblau" transform="translate(188.000000, 342.000000)">
                <rect id="Rectangle-4" fill="#009EE2" fill-rule="evenodd" x="0" y="0" width="176" height="110"></rect>
                <text id="Leben" opacity="0.5" font-family="ClerMarkHeadline-Bold, Cler Mark Headline" font-size="11" font-weight="bold" line-spacing="32" letter-spacing="0.5" fill="#FFFFFF">
                    <tspan x="66.546" y="90">REISEN</tspan>
                </text>
                <text id="12’134.51" font-family="ClerMarkHeadline-Regular, Cler Mark Headline" font-size="19" font-weight="normal" line-spacing="24" letter-spacing="-0.237499997" fill="#FFFFFF">
                    <tspan x="69.07125" y="81">0.00</tspan>
                </text>
                <g id="illu/reisen/hi" transform="translate(64.000000, 10.000000)">
                    <circle id="Oval-Copy-2" fill="#FFFFFF" fill-rule="evenodd" cx="24" cy="24" r="24"></circle>
                    <path d="M42.0171332,17.7118443 C41.2224896,17.7118443 40.2231475,17.8964179 38.9984073,18.3420393 C35.397211,19.6530289 27.1747764,22.645305 27.1747764,22.645305 L12.7383664,17 L11.03868,18.7945607 L17.5280783,26.1568021 L10.1735786,28.7766234 L3.76589979,26.4740614 L2,27.1725741 L4.80055467,30.7889652 L5.27722587,31.3829354 L14.421378,32.0326803 C14.421378,32.0326803 37.8921161,23.6176223 40.6952188,22.5975804 C42.6565281,21.8834361 44.8547356,20.2377992 44.3861144,18.9492345 C44.1319664,18.25119 43.3741224,17.7118443 42.0171332,17.7118443 Z" id="Fill-1-Copy-3" stroke="#009EE2" stroke-width="2" stroke-linejoin="round"></path>
                </g>
            </g>
            <path d="M147.322944,263.957289 L147.322944,324.289122 L139.322944,324.289122 L139.322944,263.957289 C140.623778,264.175527 141.960095,264.289122 143.322944,264.289122 C144.685793,264.289122 146.02211,264.175527 147.322944,263.957289 Z" id="Combined-Shape" fill="#80CEF0" transform="translate(143.322944, 294.123206) rotate(-57.000000) translate(-143.322944, -294.123206) "></path>
            <g id="Group-6-Copy" filter="url(#filter-1)" transform="translate(130.000000, 290.000000)">
                <rect id="Rectangle-5" fill="#FFFFFF" x="25" y="0" width="91" height="91" rx="45.5"></rect>
                <rect id="Rectangle" fill="#FFFFFF" x="0" y="14" width="157" height="74"></rect>
                <path d="M42.93925,46.7845 C42.93925,47.6901712 42.7951681,48.4818299 42.507,49.1595 C42.2188319,49.8371701 41.8261691,50.4008311 41.329,50.8505 C40.8318308,51.3001689 40.2475867,51.6358322 39.57625,51.8575 C38.9049133,52.0791678 38.1860872,52.19 37.41975,52.19 C36.6534128,52.19 35.9345867,52.0791678 35.26325,51.8575 C34.5919133,51.6358322 34.0076691,51.3001689 33.5105,50.8505 C33.0133308,50.4008311 32.6206681,49.8371701 32.3325,49.1595 C32.0443319,48.4818299 31.90025,47.6901712 31.90025,46.7845 L31.90025,38.7 L33.57225,38.7 L33.57225,46.661 C33.57225,47.3450034 33.6688324,47.9339975 33.862,48.428 C34.0551676,48.9220025 34.3227483,49.3289151 34.66475,49.64875 C35.0067517,49.9685849 35.412081,50.2044992 35.88075,50.3565 C36.349419,50.5085008 36.8624139,50.5845 37.41975,50.5845 C37.9770861,50.5845 38.490081,50.5085008 38.95875,50.3565 C39.427419,50.2044992 39.8327483,49.9685849 40.17475,49.64875 C40.5167517,49.3289151 40.782749,48.9220025 40.97275,48.428 C41.1627509,47.9339975 41.25775,47.3450034 41.25775,46.661 L41.25775,38.7 L42.93925,38.7 L42.93925,46.7845 Z M35.49125,35.1755 C35.6432507,35.1755 35.7873326,35.2039997 35.9235,35.261 C36.0596673,35.3180003 36.1768328,35.3955828 36.275,35.49375 C36.3731671,35.5919172 36.4507497,35.7090827 36.50775,35.84525 C36.5647503,35.9814173 36.59325,36.1254992 36.59325,36.2775 C36.59325,36.4358341 36.5647503,36.5814993 36.50775,36.7145 C36.4507497,36.8475007 36.3731671,36.9630828 36.275,37.06125 C36.1768328,37.1594172 36.0596673,37.2354164 35.9235,37.28925 C35.7873326,37.3430836 35.6432507,37.37 35.49125,37.37 C35.3392492,37.37 35.1967507,37.3430836 35.06375,37.28925 C34.9307493,37.2354164 34.8151671,37.1594172 34.717,37.06125 C34.6188328,36.9630828 34.5412503,36.8475007 34.48425,36.7145 C34.4272497,36.5814993 34.39875,36.4358341 34.39875,36.2775 C34.39875,36.1254992 34.4272497,35.9814173 34.48425,35.84525 C34.5412503,35.7090827 34.6188328,35.5919172 34.717,35.49375 C34.8151671,35.3955828 34.9307493,35.3180003 35.06375,35.261 C35.1967507,35.2039997 35.3392492,35.1755 35.49125,35.1755 Z M39.33875,35.1755 C39.4907507,35.1755 39.6348326,35.2039997 39.771,35.261 C39.9071673,35.3180003 40.0243328,35.3955828 40.1225,35.49375 C40.2206671,35.5919172 40.2982497,35.7090827 40.35525,35.84525 C40.4122503,35.9814173 40.44075,36.1254992 40.44075,36.2775 C40.44075,36.4358341 40.4122503,36.5814993 40.35525,36.7145 C40.2982497,36.8475007 40.2206671,36.9630828 40.1225,37.06125 C40.0243328,37.1594172 39.9071673,37.2354164 39.771,37.28925 C39.6348326,37.3430836 39.4907507,37.37 39.33875,37.37 C39.0220817,37.37 38.7608344,37.2670844 38.555,37.06125 C38.3491656,36.8554156 38.24625,36.5941682 38.24625,36.2775 C38.24625,36.1254992 38.2731664,35.9814173 38.327,35.84525 C38.3808336,35.7090827 38.4568328,35.5919172 38.555,35.49375 C38.6531671,35.3955828 38.7687493,35.3180003 38.90175,35.261 C39.0347507,35.2039997 39.1804159,35.1755 39.33875,35.1755 Z M50.40625,42.785 C51.0395865,42.785 51.6301639,42.9021655 52.178,43.1365 C52.7258361,43.3708345 53.2024146,43.6969979 53.60775,44.115 C54.0130854,44.5330021 54.3329155,45.0285805 54.56725,45.60175 C54.8015845,46.1749195 54.91875,46.8034966 54.91875,47.4875 C54.91875,48.1715034 54.8015845,48.8000805 54.56725,49.37325 C54.3329155,49.9464195 54.0130854,50.4419979 53.60775,50.86 C53.2024146,51.2780021 52.7258361,51.6041655 52.178,51.8385 C51.6301639,52.0728345 51.0395865,52.19 50.40625,52.19 C49.6905797,52.19 49.0699193,52.0633346 48.54425,51.81 C48.0185807,51.5566654 47.5784184,51.2178355 47.22375,50.7935 L47.22375,52 L45.67525,52 L45.67525,38.32 L47.22375,38.32 L47.22375,44.1815 C47.5784184,43.7571645 48.0185807,43.4183346 48.54425,43.165 C49.0699193,42.9116654 49.6905797,42.785 50.40625,42.785 Z M50.22575,44.248 C49.7697477,44.248 49.3517519,44.3303325 48.97175,44.495 C48.5917481,44.6596675 48.2655847,44.8876652 47.99325,45.179 C47.7209153,45.4703348 47.5087508,45.8123314 47.35675,46.205 C47.2047492,46.5976686 47.12875,47.0251644 47.12875,47.4875 C47.12875,47.9498356 47.2047492,48.3789147 47.35675,48.77475 C47.5087508,49.1705853 47.7209153,49.5141652 47.99325,49.8055 C48.2655847,50.0968348 48.5917481,50.3248325 48.97175,50.4895 C49.3517519,50.6541675 49.7697477,50.7365 50.22575,50.7365 C50.694419,50.7365 51.1187481,50.6510009 51.49875,50.48 C51.8787519,50.3089991 52.2049153,50.0762515 52.47725,49.78175 C52.7495847,49.4872485 52.9585826,49.1436686 53.10425,48.751 C53.2499174,48.3583314 53.32275,47.9371689 53.32275,47.4875 C53.32275,47.0378311 53.2483341,46.6166686 53.0995,46.224 C52.9506659,45.8313314 52.7400847,45.4877515 52.46775,45.19325 C52.1954153,44.8987485 51.8692519,44.6675842 51.48925,44.49975 C51.1092481,44.3319158 50.6880856,44.248 50.22575,44.248 Z M60.70425,42.785 C61.3185864,42.785 61.8854141,42.8989989 62.40475,43.127 C62.9240859,43.3550011 63.3705815,43.6748313 63.74425,44.0865 C64.1179185,44.4981687 64.4108323,44.9905805 64.623,45.56375 C64.8351677,46.1369195 64.9444166,46.7686632 64.95075,47.459 C64.95075,47.5603338 64.9475834,47.6600828 64.94125,47.75825 C64.9349166,47.8564172 64.9285834,47.9498329 64.92225,48.0385 L57.82575,48.0385 C57.8827503,48.507169 58.0014991,48.9156649 58.182,49.264 C58.3625009,49.6123351 58.5889153,49.9036655 58.86125,50.138 C59.1335847,50.3723345 59.4439149,50.5464994 59.79225,50.6605 C60.1405851,50.7745006 60.5079147,50.8315 60.89425,50.8315 C61.4262527,50.8315 61.926581,50.7365009 62.39525,50.5465 C62.863919,50.356499 63.2914147,50.0936683 63.67775,49.758 L64.50425,50.822 C64.2255819,51.081668 63.9374181,51.3001658 63.63975,51.4775 C63.3420818,51.6548342 63.0380849,51.7957495 62.72775,51.90025 C62.4174151,52.0047505 62.1007516,52.0791664 61.77775,52.1235 C61.4547484,52.1678336 61.128585,52.19 60.79925,52.19 C60.1279133,52.19 59.5120028,52.0775845 58.9515,51.85275 C58.3909972,51.6279155 57.9080854,51.3080854 57.50275,50.89325 C57.0974146,50.4784146 56.7823345,49.9828362 56.5575,49.4065 C56.3326655,48.8301638 56.22025,48.1905035 56.22025,47.4875 C56.22025,46.7971632 56.3326655,46.1622529 56.5575,45.58275 C56.7823345,45.0032471 57.094248,44.5076687 57.49325,44.096 C57.892252,43.6843313 58.3656639,43.3629178 58.9135,43.13175 C59.4613361,42.9005822 60.0582468,42.785 60.70425,42.785 Z M60.67575,44.1625 C60.276748,44.1625 59.9157516,44.227416 59.59275,44.35725 C59.2697484,44.487084 58.9895012,44.6675822 58.752,44.89875 C58.5144988,45.1299178 58.3181674,45.4054151 58.163,45.72525 C58.0078326,46.0450849 57.9017503,46.3981647 57.84475,46.7845 L63.36425,46.7845 C63.3135831,46.385498 63.2138341,46.0245016 63.065,45.7015 C62.9161659,45.3784984 62.7261678,45.1030011 62.495,44.875 C62.2638322,44.6469989 61.9946682,44.4712506 61.6875,44.34775 C61.3803318,44.2242494 61.0430852,44.1625 60.67575,44.1625 Z M71.10675,42.785 C71.3474179,42.785 71.5595824,42.7976665 71.74325,42.823 C71.9269176,42.8483335 72.0820827,42.8799998 72.20875,42.918 L71.84775,44.438 C71.7020826,44.3809997 71.5421675,44.3366668 71.368,44.305 C71.1938325,44.2733332 71.0149176,44.2575 70.83125,44.2575 C70.4765816,44.2575 70.1551681,44.322416 69.867,44.45225 C69.5788319,44.582084 69.3334177,44.7657488 69.13075,45.00325 C68.9280823,45.2407512 68.7697506,45.5273317 68.65575,45.863 C68.5417494,46.1986683 68.48475,46.5691646 68.48475,46.9745 L68.48475,52 L66.93625,52 L66.93625,42.975 L68.46575,42.975 L68.46575,44.1625 C68.7887516,43.7191645 69.1750811,43.3787512 69.62475,43.14125 C70.0744189,42.9037488 70.568414,42.785 71.10675,42.785 Z M80.23625,44.3905 L76.44575,44.3905 L76.44575,48.789 C76.44575,49.1310017 76.4884996,49.4239154 76.574,49.66775 C76.6595004,49.9115846 76.7782492,50.1126659 76.93025,50.271 C77.0822508,50.4293341 77.2611656,50.5464996 77.467,50.6225 C77.6728344,50.6985004 77.8992488,50.7365 78.14625,50.7365 C78.4819183,50.7365 78.8080818,50.6795006 79.12475,50.5655 C79.4414183,50.4514994 79.729582,50.3058342 79.98925,50.1285 L80.72075,51.297 C80.3724149,51.5503346 79.9734189,51.7624991 79.52375,51.9335 C79.0740811,52.1045009 78.5705861,52.19 78.01325,52.19 C77.5255809,52.19 77.0885853,52.1219173 76.70225,51.98575 C76.3159147,51.8495827 75.988168,51.6421681 75.719,51.3635 C75.449832,51.0848319 75.2440007,50.7349188 75.1015,50.31375 C74.9589993,49.8925812 74.88775,49.3938362 74.88775,48.8175 L74.88775,44.3905 L72.95925,44.3905 L72.95925,42.975 L74.88775,42.975 L74.88775,40.144 L76.44575,40.144 L76.44575,42.975 L80.23625,42.975 L80.23625,44.3905 Z M86.27825,42.785 C86.5189179,42.785 86.7310824,42.7976665 86.91475,42.823 C87.0984176,42.8483335 87.2535827,42.8799998 87.38025,42.918 L87.01925,44.438 C86.8735826,44.3809997 86.7136675,44.3366668 86.5395,44.305 C86.3653325,44.2733332 86.1864176,44.2575 86.00275,44.2575 C85.6480816,44.2575 85.3266681,44.322416 85.0385,44.45225 C84.7503319,44.582084 84.5049177,44.7657488 84.30225,45.00325 C84.0995823,45.2407512 83.9412506,45.5273317 83.82725,45.863 C83.7132494,46.1986683 83.65625,46.5691646 83.65625,46.9745 L83.65625,52 L82.10775,52 L82.10775,42.975 L83.63725,42.975 L83.63725,44.1625 C83.9602516,43.7191645 84.3465811,43.3787512 84.79625,43.14125 C85.2459189,42.9037488 85.739914,42.785 86.27825,42.785 Z M97.27925,52 L95.72125,52 L95.72125,50.7935 C95.3602482,51.2178355 94.9169193,51.5566654 94.39125,51.81 C93.8655807,52.0633346 93.2480869,52.19 92.53875,52.19 C91.9054135,52.19 91.3132528,52.0728345 90.76225,51.8385 C90.2112473,51.6041655 89.7330854,51.2780021 89.32775,50.86 C88.9224146,50.4419979 88.6041678,49.9464195 88.373,49.37325 C88.1418322,48.8000805 88.02625,48.1715034 88.02625,47.4875 C88.02625,46.8034966 88.1418322,46.1749195 88.373,45.60175 C88.6041678,45.0285805 88.9224146,44.5330021 89.32775,44.115 C89.7330854,43.6969979 90.2112473,43.3708345 90.76225,43.1365 C91.3132528,42.9021655 91.9054135,42.785 92.53875,42.785 C93.2480869,42.785 93.8655807,42.9116654 94.39125,43.165 C94.9169193,43.4183346 95.3602482,43.7603312 95.72125,44.191 L95.72125,42.975 L97.27925,42.975 L97.27925,52 Z M92.71925,44.248 C92.250581,44.248 91.8246686,44.3319158 91.4415,44.49975 C91.0583314,44.6675842 90.7305847,44.8987485 90.45825,45.19325 C90.1859153,45.4877515 89.9769174,45.8313314 89.83125,46.224 C89.6855826,46.6166686 89.61275,47.0378311 89.61275,47.4875 C89.61275,47.9371689 89.6871659,48.3583314 89.836,48.751 C89.9848341,49.1436686 90.1954153,49.4872485 90.46775,49.78175 C90.7400847,50.0762515 91.0678314,50.3089991 91.451,50.48 C91.8341686,50.6510009 92.2569144,50.7365 92.71925,50.7365 C93.1752523,50.7365 93.5932481,50.6541675 93.97325,50.4895 C94.3532519,50.3248325 94.6794153,50.0968348 94.95175,49.8055 C95.2240847,49.5141652 95.4362492,49.1705853 95.58825,48.77475 C95.7402508,48.3789147 95.81625,47.9498356 95.81625,47.4875 C95.81625,47.0251644 95.7402508,46.5976686 95.58825,46.205 C95.4362492,45.8123314 95.2240847,45.4703348 94.95175,45.179 C94.6794153,44.8876652 94.3532519,44.6596675 93.97325,44.495 C93.5932481,44.3303325 93.1752523,44.248 92.71925,44.248 Z M103.72975,42.785 C104.432754,42.785 105.040747,42.9116654 105.55375,43.165 C106.066753,43.4183346 106.494248,43.7634978 106.83625,44.2005 L106.83625,42.975 L108.39425,42.975 L108.39425,51.373 C108.39425,52.101337 108.278668,52.7504972 108.0475,53.3205 C107.816332,53.8905029 107.488585,54.3702481 107.06425,54.75975 C106.639915,55.1492519 106.133253,55.4453323 105.54425,55.648 C104.955247,55.8506677 104.306087,55.952 103.59675,55.952 C103.242082,55.952 102.890585,55.9266669 102.54225,55.876 C102.193915,55.8253331 101.855085,55.7493338 101.52575,55.648 C101.196415,55.5466662 100.886085,55.4231674 100.59475,55.2775 C100.303415,55.1318326 100.043751,54.9671676 99.81575,54.7835 L100.49025,53.5295 C100.927252,53.8398349 101.406997,54.0852491 101.9295,54.26575 C102.452003,54.4462509 103.007747,54.5365 103.59675,54.5365 C104.078086,54.5365 104.518248,54.4684173 104.91725,54.33225 C105.316252,54.1960827 105.658249,53.998168 105.94325,53.7385 C106.228251,53.478832 106.448333,53.1558353 106.6035,52.7695 C106.758667,52.3831647 106.83625,51.9398358 106.83625,51.4395 L106.83625,50.6415 C106.494248,51.0785022 106.066753,51.4220821 105.55375,51.67225 C105.040747,51.9224179 104.432754,52.0475 103.72975,52.0475 C103.096414,52.0475 102.507419,51.9350845 101.96275,51.71025 C101.418081,51.4854155 100.946252,51.168752 100.54725,50.76025 C100.148248,50.351748 99.8347511,49.8640862 99.60675,49.29725 C99.3787489,48.7304138 99.26475,48.1018368 99.26475,47.4115 C99.26475,46.7274966 99.3787489,46.1005028 99.60675,45.5305 C99.8347511,44.9604971 100.148248,44.4728354 100.54725,44.0675 C100.946252,43.6621646 101.418081,43.3470845 101.96275,43.12225 C102.507419,42.8974155 103.096414,42.785 103.72975,42.785 Z M103.91025,44.248 C103.447914,44.248 103.028335,44.3319158 102.6515,44.49975 C102.274665,44.6675842 101.953251,44.8939986 101.68725,45.179 C101.421249,45.4640014 101.215417,45.7980814 101.06975,46.18125 C100.924083,46.5644186 100.85125,46.9744978 100.85125,47.4115 C100.85125,47.8485022 100.924083,48.2601647 101.06975,48.6465 C101.215417,49.0328353 101.421249,49.3700819 101.68725,49.65825 C101.953251,49.9464181 102.274665,50.1728325 102.6515,50.3375 C103.028335,50.5021675 103.447914,50.5845 103.91025,50.5845 C104.359919,50.5845 104.771581,50.5037508 105.14525,50.34225 C105.518919,50.1807492 105.841915,49.9575014 106.11425,49.6725 C106.386585,49.3874986 106.597166,49.0518353 106.746,48.6655 C106.894834,48.2791647 106.96925,47.8611689 106.96925,47.4115 C106.96925,46.9618311 106.894834,46.5438353 106.746,46.1575 C106.597166,45.7711647 106.386585,45.4370847 106.11425,45.15525 C105.841915,44.8734153 105.518919,44.6517508 105.14525,44.49025 C104.771581,44.3287492 104.359919,44.248 103.91025,44.248 Z" id="Übertrag" fill="#000000"></path>
            </g>
        </g>
    </g>
</svg>